<?xml version="1.0" encoding="utf-8"?>
<!-- Generator: Adobe Illustrator 16.0.0, SVG Export Plug-In . SVG Version: 6.00 Build 0)  -->
<!DOCTYPE svg PUBLIC "-//W3C//DTD SVG 1.1//EN" "http://www.w3.org/Graphics/SVG/1.1/DTD/svg11.dtd">
<svg version="1.1" id="Layer_1" xmlns="http://www.w3.org/2000/svg" xmlns:xlink="http://www.w3.org/1999/xlink" x="0px" y="0px"
	 width="360px" height="82.333px" viewBox="0 0 360 82.333" enable-background="new 0 0 360 82.333" xml:space="preserve">
<rect x="19.5" y="15.417" fill="#FFFFFF" width="46" height="53.25"/>
<g>
	<path d="M83.564,19.006h7.458v36.159h21.659v6.443H83.564V19.006z"/>
	<path d="M129.149,62.444c-2.467,0-4.665-0.408-6.593-1.223c-1.93-0.814-3.561-1.939-4.893-3.371
		c-1.333-1.432-2.348-3.143-3.043-5.131c-0.697-1.989-1.044-4.178-1.044-6.562c0-2.348,0.348-4.515,1.044-6.505
		c0.695-1.988,1.709-3.699,3.043-5.131c1.332-1.432,2.962-2.556,4.893-3.372c1.929-0.814,4.126-1.223,6.593-1.223
		c2.466,0,4.663,0.409,6.593,1.223c1.929,0.816,3.56,1.939,4.893,3.372c1.333,1.432,2.347,3.143,3.043,5.131
		c0.696,1.99,1.044,4.157,1.044,6.505c0,2.387-0.349,4.574-1.044,6.562c-0.696,1.988-1.71,3.699-3.043,5.131
		c-1.333,1.432-2.963,2.557-4.893,3.371C133.812,62.036,131.615,62.444,129.149,62.444z M129.149,57.075
		c1.511,0,2.824-0.318,3.938-0.955c1.113-0.637,2.028-1.472,2.745-2.507c0.716-1.034,1.243-2.198,1.581-3.491
		c0.337-1.291,0.507-2.615,0.507-3.968c0-1.312-0.169-2.625-0.507-3.938c-0.338-1.312-0.865-2.475-1.581-3.49
		c-0.716-1.014-1.632-1.839-2.745-2.476c-1.114-0.636-2.427-0.955-3.938-0.955c-1.512,0-2.825,0.319-3.938,0.955
		c-1.114,0.637-2.029,1.462-2.745,2.476c-0.716,1.015-1.244,2.178-1.581,3.49c-0.338,1.312-0.507,2.625-0.507,3.938
		c0,1.353,0.168,2.677,0.507,3.968c0.337,1.293,0.865,2.457,1.581,3.491c0.716,1.035,1.631,1.87,2.745,2.507
		C126.324,56.756,127.637,57.075,129.149,57.075z"/>
	<path d="M174.435,61.608h-6.683v-4.296h-0.119c-0.835,1.551-2.079,2.795-3.729,3.729c-1.651,0.934-3.332,1.401-5.042,1.401
		c-4.058,0-6.991-1.004-8.801-3.013c-1.811-2.008-2.715-5.042-2.715-9.1v-19.57h6.802v18.916c0,2.705,0.517,4.615,1.551,5.728
		c1.034,1.114,2.486,1.671,4.356,1.671c1.432,0,2.625-0.219,3.58-0.656c0.955-0.438,1.73-1.024,2.327-1.76
		c0.597-0.736,1.024-1.621,1.283-2.656c0.258-1.033,0.388-2.147,0.388-3.34v-17.9h6.802V61.608L174.435,61.608z"/>
	<path d="M178.73,19.006h6.801v6.444h-6.801V19.006z M178.73,30.761h6.801v30.848h-6.801V30.761z"/>
	<path d="M196.212,51.704c0.199,1.99,0.955,3.381,2.269,4.178c1.312,0.795,2.884,1.193,4.713,1.193c0.637,0,1.363-0.05,2.179-0.15
		c0.813-0.098,1.581-0.287,2.297-0.566c0.716-0.277,1.304-0.688,1.761-1.223c0.457-0.537,0.666-1.243,0.627-2.118
		c-0.041-0.875-0.357-1.591-0.955-2.147c-0.597-0.558-1.362-1.004-2.297-1.344c-0.936-0.337-1.998-0.626-3.191-0.865
		c-1.193-0.238-2.407-0.496-3.641-0.775c-1.272-0.277-2.496-0.615-3.67-1.014c-1.174-0.397-2.229-0.935-3.162-1.611
		c-0.936-0.676-1.681-1.541-2.236-2.596c-0.559-1.054-0.836-2.356-0.836-3.909c0-1.671,0.406-3.073,1.224-4.207
		c0.813-1.134,1.851-2.048,3.103-2.745c1.254-0.696,2.646-1.183,4.178-1.462c1.529-0.278,2.992-0.418,4.386-0.418
		c1.59,0,3.11,0.17,4.563,0.507c1.451,0.338,2.765,0.886,3.938,1.641c1.173,0.756,2.147,1.741,2.924,2.954
		c0.775,1.214,1.263,2.676,1.462,4.386h-7.101c-0.317-1.631-1.063-2.724-2.237-3.282c-1.174-0.557-2.517-0.835-4.027-0.835
		c-0.478,0-1.043,0.04-1.7,0.12c-0.656,0.08-1.273,0.229-1.851,0.447c-0.576,0.219-1.063,0.537-1.462,0.955
		c-0.397,0.418-0.597,0.965-0.597,1.641c0,0.835,0.288,1.512,0.865,2.028c0.576,0.518,1.332,0.945,2.268,1.283
		c0.936,0.339,1.999,0.627,3.191,0.864c1.193,0.24,2.427,0.498,3.699,0.777c1.232,0.278,2.446,0.616,3.641,1.014
		c1.193,0.398,2.257,0.935,3.191,1.611c0.935,0.676,1.69,1.531,2.269,2.564c0.576,1.035,0.864,2.309,0.864,3.818
		c0,1.83-0.418,3.381-1.254,4.654c-0.834,1.273-1.918,2.309-3.25,3.104c-1.334,0.796-2.815,1.373-4.445,1.73
		c-1.633,0.357-3.243,0.536-4.833,0.536c-1.949,0-3.75-0.219-5.399-0.655c-1.65-0.438-3.084-1.104-4.297-2
		c-1.214-0.895-2.168-2.008-2.863-3.34c-0.697-1.332-1.064-2.914-1.104-4.744H196.212L196.212,51.704z"/>
	<path d="M216.021,30.761h7.397l7.815,23.689h0.119l7.52-23.689h7.04l-11.038,30.848h-7.639L216.021,30.761z"/>
	<path d="M248.359,19.006h6.803v6.444h-6.803V19.006z M248.359,30.761h6.803v30.848h-6.803V30.761z"/>
	<path d="M259.695,19.006h6.803v42.602h-6.803V19.006z"/>
	<path d="M271.033,19.006h6.802v42.602h-6.802V19.006z"/>
	<path d="M287.501,47.945c0,1.193,0.168,2.349,0.507,3.46c0.338,1.114,0.846,2.088,1.521,2.924s1.531,1.502,2.564,2
		c1.034,0.498,2.268,0.746,3.699,0.746c1.989,0,3.59-0.428,4.805-1.283c1.213-0.855,2.117-2.139,2.715-3.85h6.442
		c-0.356,1.671-0.975,3.163-1.85,4.475c-0.875,1.312-1.931,2.418-3.162,3.312c-1.233,0.895-2.616,1.572-4.146,2.027
		c-1.533,0.457-3.134,0.688-4.805,0.688c-2.427,0-4.574-0.398-6.443-1.193s-3.451-1.908-4.744-3.34
		c-1.293-1.433-2.267-3.143-2.922-5.132c-0.658-1.989-0.985-4.177-0.985-6.563c0-2.187,0.349-4.266,1.045-6.234
		c0.694-1.969,1.688-3.7,2.983-5.191c1.291-1.491,2.854-2.674,4.684-3.55c1.829-0.875,3.896-1.313,6.205-1.313
		c2.426,0,4.604,0.507,6.533,1.521c1.93,1.015,3.529,2.357,4.804,4.028c1.271,1.67,2.197,3.59,2.773,5.758s0.727,4.406,0.447,6.712
		L287.501,47.945L287.501,47.945z M303.372,43.469c-0.08-1.073-0.31-2.107-0.687-3.102c-0.379-0.994-0.896-1.859-1.552-2.596
		c-0.655-0.735-1.452-1.332-2.387-1.79c-0.937-0.457-1.979-0.686-3.133-0.686c-1.193,0-2.277,0.209-3.253,0.626
		c-0.975,0.418-1.811,0.995-2.506,1.73c-0.695,0.736-1.252,1.602-1.67,2.595c-0.418,0.995-0.646,2.069-0.687,3.221h15.873V43.469z"
		/>
	<path fill="#999999" d="M311.816,56.944h3.695v4.664h-3.695V56.944z"/>
	<path fill="#999999" d="M321.409,30.192v4.444h-2.772v-4.444H321.409z M321.409,38.904v22.704h-2.772V38.904H321.409z"/>
	<path fill="#999999" d="M339.735,39.212c1.334,0.646,2.456,1.511,3.365,2.596c0.908,1.086,1.6,2.354,2.067,3.806
		c0.47,1.452,0.704,3,0.704,4.643s-0.234,3.189-0.704,4.642c-0.469,1.452-1.159,2.722-2.067,3.806
		c-0.909,1.086-2.031,1.943-3.365,2.574c-1.335,0.631-2.867,0.946-4.599,0.946c-1.73,0-3.264-0.315-4.599-0.946
		c-1.335-0.63-2.457-1.488-3.366-2.574c-0.909-1.084-1.599-2.354-2.066-3.806c-0.471-1.452-0.704-2.999-0.704-4.642
		c0-1.644,0.233-3.19,0.704-4.643c0.469-1.451,1.157-2.72,2.066-3.806c0.909-1.084,2.031-1.95,3.366-2.596
		c1.335-0.645,2.867-0.968,4.599-0.968S338.4,38.567,339.735,39.212z M331.661,41.412c-0.997,0.557-1.826,1.292-2.485,2.2
		c-0.66,0.91-1.159,1.943-1.496,3.102c-0.338,1.16-0.507,2.34-0.507,3.543s0.169,2.384,0.507,3.541
		c0.337,1.16,0.836,2.193,1.496,3.103c0.659,0.91,1.488,1.644,2.485,2.2s2.156,0.836,3.477,0.836c1.319,0,2.479-0.279,3.477-0.836
		s1.826-1.291,2.485-2.2c0.66-0.909,1.158-1.942,1.496-3.103c0.337-1.157,0.506-2.338,0.506-3.541s-0.169-2.383-0.506-3.543
		c-0.338-1.158-0.836-2.191-1.496-3.102c-0.659-0.908-1.488-1.643-2.485-2.2s-2.156-0.836-3.477-0.836
		S332.658,40.855,331.661,41.412z"/>
</g>
<g id="XMLID_2_">
	<path id="XMLID_66_" fill="#F75400" d="M32.461,20.65c-0.897,0.034-1.646,0.35-2.244,0.948c-0.599,0.599-0.898,1.347-0.898,2.245
		c0,0.898,0.299,1.646,0.898,2.244c0.599,0.598,1.347,0.897,2.244,0.897c0.898,0,1.646-0.299,2.245-0.897
		c0.599-0.598,0.898-1.346,0.898-2.244c0-0.898-0.299-1.646-0.898-2.245C34.107,21,33.359,20.684,32.461,20.65z"/>
	<path id="XMLID_70_" fill="#F75400" d="M73,15.769C73,13.688,71.313,12,69.232,12H16.768C14.687,12,13,13.688,13,15.769v52.462
		c0,2.081,1.687,3.77,3.768,3.77h52.464C71.313,72,73,70.312,73,68.231V15.769z M53,66.288V60c0,0-0.045,0-0.268,0H38.846
		c-2.494,0-4.324-1.147-6.219-3.043C30.731,55.063,30,52.819,30,50.325V38.503c0-0.313,0-0.564,0-0.763c0,0.004,0-0.163,0-0.678
		c0-0.21,0-0.479,0-0.816c0-2.786,0-5.315,0-6.828c0-0.273-1.29-0.621-1.712-1.043c-1.202-1.202-1.97-2.704-1.97-4.507
		c0-1.803,0.519-3.305,1.72-4.506c1.202-1.202,2.662-1.836,4.465-1.903c1.803,0.067,3.284,0.701,4.486,1.903
		c1.202,1.202,1.792,2.703,1.792,4.506c0,1.803-0.947,3.305-2.148,4.507C36.236,28.771,35,29.102,35,29.367v6.879v14.079
		c0,0.832,0.693,1.805,1.325,2.436c0.631,0.633,1.69,1.24,2.521,1.24H53v-6.867l9.577,9.576L53,66.288z"/>
</g>
</svg>
