<?xml version="1.0" encoding="utf-8"?>
<!-- Generator: Adobe Illustrator 16.0.0, SVG Export Plug-In . SVG Version: 6.00 Build 0)  -->
<!DOCTYPE svg PUBLIC "-//W3C//DTD SVG 1.1//EN" "http://www.w3.org/Graphics/SVG/1.1/DTD/svg11.dtd">
<svg version="1.1" id="Layer_1" xmlns="http://www.w3.org/2000/svg" xmlns:xlink="http://www.w3.org/1999/xlink" x="0px" y="0px"
	 width="336.75px" height="64.25px" viewBox="0 0 336.75 64.25" enable-background="new 0 0 336.75 64.25" xml:space="preserve">
<g>
	<path fill="#FFFFFF" d="M72.133,9.13h7.458v36.159h21.659v6.441H72.133V9.13z"/>
	<path fill="#FFFFFF" d="M117.718,52.566c-2.467,0-4.665-0.406-6.593-1.225c-1.93-0.812-3.561-1.938-4.893-3.369
		c-1.333-1.434-2.348-3.145-3.043-5.133c-0.697-1.986-1.044-4.178-1.044-6.562c0-2.35,0.348-4.515,1.044-6.505
		c0.695-1.987,1.709-3.698,3.043-5.131c1.332-1.433,2.962-2.557,4.893-3.373c1.929-0.814,4.126-1.223,6.593-1.223
		c2.466,0,4.663,0.409,6.593,1.223c1.929,0.816,3.56,1.939,4.893,3.373c1.333,1.433,2.347,3.144,3.043,5.131
		c0.696,1.99,1.044,4.158,1.044,6.505c0,2.388-0.349,4.572-1.044,6.562c-0.696,1.988-1.71,3.699-3.043,5.133
		s-2.963,2.559-4.893,3.369C122.381,52.16,120.184,52.566,117.718,52.566z M117.718,47.199c1.511,0,2.824-0.318,3.938-0.955
		c1.113-0.639,2.028-1.473,2.745-2.508c0.716-1.033,1.243-2.197,1.581-3.49c0.337-1.291,0.507-2.615,0.507-3.969
		c0-1.312-0.169-2.625-0.507-3.938c-0.338-1.312-0.865-2.475-1.581-3.489c-0.716-1.014-1.632-1.84-2.745-2.477
		c-1.114-0.636-2.427-0.955-3.938-0.955c-1.512,0-2.825,0.319-3.938,0.955c-1.114,0.637-2.029,1.462-2.745,2.477
		c-0.716,1.016-1.244,2.179-1.581,3.489c-0.338,1.312-0.507,2.625-0.507,3.938c0,1.354,0.168,2.678,0.507,3.969
		c0.337,1.293,0.865,2.457,1.581,3.49c0.716,1.035,1.631,1.869,2.745,2.508C114.893,46.88,116.206,47.199,117.718,47.199z"/>
	<path fill="#FFFFFF" d="M163.004,51.73h-6.684v-4.295h-0.119c-0.835,1.551-2.079,2.795-3.729,3.729
		c-1.651,0.936-3.332,1.398-5.042,1.398c-4.058,0-6.991-1.004-8.801-3.012c-1.811-2.01-2.715-5.044-2.715-9.102v-19.57h6.802v18.916
		c0,2.705,0.517,4.615,1.551,5.729c1.034,1.115,2.486,1.674,4.356,1.674c1.432,0,2.625-0.221,3.58-0.656
		c0.955-0.438,1.73-1.021,2.327-1.76c0.597-0.736,1.024-1.621,1.283-2.656c0.258-1.033,0.388-2.146,0.388-3.34v-17.9h6.803V51.73
		L163.004,51.73z"/>
	<path fill="#FFFFFF" d="M167.299,9.13h6.801v6.444h-6.801V9.13z M167.299,20.885h6.801v30.85h-6.801V20.885z"/>
	<path fill="#FFFFFF" d="M184.781,41.828c0.199,1.988,0.955,3.381,2.268,4.178c1.312,0.795,2.887,1.193,4.713,1.193
		c0.639,0,1.363-0.051,2.182-0.15c0.812-0.098,1.58-0.285,2.299-0.564c0.717-0.275,1.305-0.688,1.762-1.225
		c0.457-0.535,0.666-1.242,0.627-2.117c-0.041-0.875-0.355-1.592-0.955-2.146c-0.598-0.562-1.359-1.004-2.297-1.347
		c-0.938-0.338-1.998-0.627-3.189-0.862c-1.193-0.238-2.406-0.496-3.643-0.772c-1.271-0.277-2.496-0.615-3.67-1.017
		c-1.176-0.396-2.229-0.938-3.162-1.608c-0.938-0.679-1.682-1.541-2.234-2.599c-0.561-1.056-0.836-2.354-0.836-3.909
		c0-1.671,0.404-3.072,1.225-4.207c0.812-1.134,1.85-2.048,3.102-2.745c1.254-0.696,2.646-1.183,4.18-1.462
		c1.527-0.278,2.99-0.418,4.389-0.418c1.59,0,3.105,0.17,4.562,0.507c1.449,0.338,2.768,0.886,3.938,1.641
		c1.172,0.756,2.146,1.74,2.924,2.953c0.773,1.215,1.264,2.677,1.461,4.387h-7.101c-0.317-1.631-1.063-2.725-2.237-3.282
		c-1.174-0.557-2.518-0.835-4.025-0.835c-0.479,0-1.043,0.04-1.697,0.12c-0.656,0.08-1.273,0.229-1.854,0.447
		c-0.575,0.219-1.062,0.536-1.461,0.954c-0.396,0.418-0.599,0.966-0.599,1.642c0,0.835,0.289,1.513,0.865,2.026
		c0.576,0.52,1.332,0.945,2.269,1.283c0.937,0.34,2,0.627,3.19,0.864c1.192,0.24,2.428,0.498,3.699,0.777
		c1.229,0.277,2.444,0.615,3.641,1.014c1.193,0.396,2.259,0.936,3.191,1.611c0.936,0.676,1.688,1.529,2.27,2.562
		c0.576,1.033,0.863,2.311,0.863,3.816c0,1.83-0.418,3.381-1.254,4.652c-0.834,1.271-1.918,2.311-3.25,3.104
		c-1.334,0.798-2.813,1.373-4.445,1.729c-1.633,0.356-3.241,0.535-4.832,0.535c-1.948,0-3.75-0.22-5.399-0.652
		c-1.647-0.438-3.084-1.104-4.297-2c-1.213-0.896-2.168-2.01-2.862-3.344c-0.695-1.33-1.062-2.912-1.104-4.74L184.781,41.828
		L184.781,41.828z"/>
	<path fill="#FFFFFF" d="M204.59,20.885h7.396l7.812,23.689h0.119l7.521-23.689h7.041l-11.039,30.85h-7.641L204.59,20.885z"/>
	<path fill="#FFFFFF" d="M236.928,9.13h6.803v6.444h-6.803V9.13z M236.928,20.885h6.803v30.85h-6.803V20.885z"/>
	<path fill="#FFFFFF" d="M248.264,9.13h6.803v42.603h-6.803V9.13z"/>
	<path fill="#FFFFFF" d="M259.602,9.13h6.803v42.603h-6.803V9.13z"/>
	<path fill="#FFFFFF" d="M276.07,38.068c0,1.192,0.168,2.35,0.506,3.461c0.338,1.113,0.846,2.088,1.521,2.924
		c0.674,0.836,1.529,1.502,2.562,2c1.034,0.498,2.271,0.746,3.698,0.746c1.988,0,3.591-0.43,4.808-1.283
		c1.213-0.854,2.115-2.141,2.715-3.852h6.441c-0.355,1.672-0.976,3.164-1.851,4.477s-1.935,2.418-3.162,3.312
		c-1.233,0.896-2.617,1.57-4.146,2.025c-1.533,0.457-3.137,0.688-4.807,0.688c-2.43,0-4.572-0.396-6.441-1.19
		s-3.451-1.908-4.744-3.34c-1.293-1.435-2.268-3.146-2.922-5.134c-0.657-1.987-0.982-4.178-0.982-6.562
		c0-2.188,0.35-4.266,1.045-6.232c0.691-1.969,1.688-3.7,2.98-5.191c1.291-1.491,2.854-2.674,4.688-3.55
		c1.828-0.875,3.895-1.313,6.205-1.313c2.426,0,4.604,0.507,6.529,1.521c1.934,1.015,3.529,2.357,4.807,4.027
		c1.271,1.67,2.195,3.59,2.771,5.758c0.576,2.167,0.729,4.407,0.447,6.713L276.07,38.068L276.07,38.068z M291.941,33.594
		c-0.08-1.073-0.312-2.108-0.688-3.103c-0.379-0.994-0.896-1.859-1.553-2.596c-0.654-0.735-1.451-1.332-2.388-1.791
		c-0.938-0.457-1.979-0.687-3.136-0.687c-1.19,0-2.274,0.209-3.254,0.626c-0.975,0.418-1.812,0.995-2.506,1.729
		c-0.692,0.736-1.252,1.604-1.67,2.597c-0.418,0.995-0.646,2.067-0.687,3.221h15.873v0.003L291.941,33.594L291.941,33.594z"/>
	<path fill="#999999" d="M300.385,47.066h3.693v4.664h-3.693V47.066z"/>
	<path fill="#999999" d="M309.979,20.316v4.444h-2.771v-4.444H309.979z M309.979,29.028V51.73h-2.771V29.028H309.979z"/>
	<path fill="#999999" d="M328.305,29.336c1.334,0.646,2.455,1.511,3.363,2.597c0.908,1.086,1.602,2.354,2.066,3.807
		c0.471,1.451,0.705,3,0.705,4.643c0,1.645-0.234,3.188-0.705,4.643c-0.471,1.453-1.158,2.725-2.066,3.809
		c-0.908,1.086-2.029,1.941-3.363,2.574c-1.336,0.631-2.867,0.943-4.602,0.943c-1.729,0-3.264-0.312-4.598-0.943
		c-1.338-0.633-2.457-1.488-3.367-2.574c-0.908-1.084-1.6-2.354-2.064-3.809c-0.473-1.449-0.703-2.998-0.703-4.643
		c0-1.644,0.23-3.189,0.703-4.643c0.469-1.451,1.156-2.721,2.064-3.807c0.91-1.084,2.029-1.951,3.367-2.597
		c1.334-0.646,2.865-0.968,4.598-0.968C325.438,28.368,326.969,28.69,328.305,29.336z M320.23,31.536
		c-0.998,0.558-1.826,1.292-2.486,2.198c-0.66,0.91-1.158,1.942-1.496,3.104s-0.506,2.342-0.506,3.543
		c0,1.203,0.168,2.385,0.506,3.541c0.338,1.16,0.836,2.193,1.496,3.104c0.66,0.912,1.488,1.646,2.486,2.201
		c0.994,0.558,2.154,0.836,3.477,0.836c1.318,0,2.479-0.277,3.479-0.836c0.998-0.559,1.826-1.291,2.482-2.201
		c0.66-0.906,1.158-1.939,1.496-3.104c0.338-1.156,0.506-2.338,0.506-3.541c0-1.201-0.168-2.383-0.506-3.543
		c-0.338-1.156-0.836-2.189-1.496-3.104c-0.656-0.906-1.486-1.645-2.482-2.198c-0.996-0.557-2.154-0.836-3.479-0.836
		C322.387,30.7,321.227,30.979,320.23,31.536z"/>
</g>
<g>
	<rect x="8.444" y="5.749" fill="#FFFFFF" width="45.333" height="51.667"/>
	<path id="XMLID_66_" fill="#F75400" d="M21.03,10.774c-0.897,0.034-1.646,0.35-2.244,0.948c-0.599,0.599-0.898,1.347-0.898,2.245
		c0,0.898,0.299,1.646,0.898,2.244c0.599,0.598,1.347,0.897,2.244,0.897c0.898,0,1.646-0.299,2.245-0.897s0.898-1.346,0.898-2.244
		c0-0.898-0.299-1.646-0.898-2.245C22.676,11.124,21.928,10.808,21.03,10.774z"/>
	<path id="XMLID_70_" fill="#F75400" d="M61.569,5.893c0-2.081-1.687-3.769-3.768-3.769H5.337c-2.081,0-3.768,1.688-3.768,3.769
		v52.46c0,2.082,1.687,3.771,3.768,3.771h52.464c2.081-0.001,3.768-1.688,3.768-3.771V5.893z M41.569,56.412v-6.288
		c0,0-0.045,0-0.268,0H27.415c-2.494,0-4.324-1.146-6.219-3.043c-1.896-1.896-2.627-4.14-2.627-6.632V28.627
		c0-0.313,0-0.563,0-0.763c0,0.004,0-0.163,0-0.678c0-0.211,0-0.479,0-0.816c0-2.786,0-5.315,0-6.828
		c0-0.273-1.29-0.621-1.712-1.043c-1.202-1.202-1.97-2.704-1.97-4.507c0-1.803,0.519-3.305,1.72-4.506
		c1.202-1.202,2.662-1.836,4.465-1.903c1.803,0.067,3.284,0.701,4.486,1.903c1.202,1.202,1.792,2.703,1.792,4.506
		c0,1.803-0.947,3.305-2.148,4.507c-0.397,0.396-1.633,0.727-1.633,0.992v6.879v14.079c0,0.832,0.693,1.805,1.325,2.437
		c0.631,0.632,1.69,1.238,2.521,1.238h14.154v-6.867l9.577,9.576L41.569,56.412z"/>
</g>
</svg>
