<?xml version="1.0" encoding="utf-8"?>
<!-- Generator: Adobe Illustrator 21.1.0, SVG Export Plug-In . SVG Version: 6.00 Build 0)  -->
<svg version="1.1" id="Layer_1" xmlns="http://www.w3.org/2000/svg" xmlns:xlink="http://www.w3.org/1999/xlink" x="0px" y="0px"
	 viewBox="0 0 499.5 72" style="enable-background:new 0 0 499.5 72;" xml:space="preserve">
<style type="text/css">
	.st0{fill:#FFFFFF;}
	.st1{fill:#F75400;}
	.st2{fill:#999999;}
</style>
<g>
	<rect x="9.9" y="9.7" class="st0" width="45.3" height="51.7"/>
	<path id="XMLID_4_" class="st1" d="M22.5,14.8c-0.9,0-1.6,0.4-2.2,0.9c-0.6,0.6-0.9,1.3-0.9,2.2c0,0.9,0.3,1.6,0.9,2.2
		c0.6,0.6,1.3,0.9,2.2,0.9c0.9,0,1.6-0.3,2.2-0.9s0.9-1.3,0.9-2.2s-0.3-1.6-0.9-2.2C24.2,15.1,23.4,14.8,22.5,14.8z"/>
	<path id="XMLID_3_" class="st1" d="M63.1,9.9c0-2.1-1.7-3.8-3.8-3.8H6.8c-2.1,0-3.8,1.7-3.8,3.8v52.5c0,2.1,1.7,3.8,3.8,3.8h52.5
		c2.1,0,3.8-1.7,3.8-3.8C63.1,62.4,63.1,9.9,63.1,9.9z M43.1,60.4v-6.3c0,0,0,0-0.3,0H28.9c-2.5,0-4.3-1.1-6.2-3
		c-1.9-1.9-2.6-4.1-2.6-6.6V32.6c0-0.3,0-0.6,0-0.8c0,0,0-0.2,0-0.7c0-0.2,0-0.5,0-0.8c0-2.8,0-5.3,0-6.8c0-0.3-1.3-0.6-1.7-1
		c-1.2-1.2-2-2.7-2-4.5s0.5-3.3,1.7-4.5c1.2-1.2,2.7-1.8,4.5-1.9c1.8,0.1,3.3,0.7,4.5,1.9s1.8,2.7,1.8,4.5c0,1.8-0.9,3.3-2.1,4.5
		c-0.4,0.4-1.6,0.7-1.6,1v6.9v14.1c0,0.8,0.7,1.8,1.3,2.4c0.6,0.6,1.7,1.2,2.5,1.2h14.2v-6.9l9.6,9.6L43.1,60.4z"/>
</g>
<g>
	<path class="st0" d="M73.8,16.1h7.6v37h22.1v6.6H73.8V16.1z"/>
	<path class="st0" d="M120.3,60.5c-2.5,0-4.8-0.4-6.7-1.2c-2-0.8-3.6-2-5-3.4c-1.4-1.5-2.4-3.2-3.1-5.2c-0.7-2-1.1-4.3-1.1-6.7
		c0-2.4,0.4-4.6,1.1-6.6c0.7-2,1.7-3.8,3.1-5.2c1.4-1.5,3-2.6,5-3.4c2-0.8,4.2-1.3,6.7-1.3c2.5,0,4.8,0.4,6.7,1.3c2,0.8,3.6,2,5,3.4
		c1.4,1.5,2.4,3.2,3.1,5.2c0.7,2,1.1,4.2,1.1,6.6c0,2.4-0.4,4.7-1.1,6.7c-0.7,2-1.7,3.8-3.1,5.2c-1.4,1.5-3,2.6-5,3.4
		C125.1,60.1,122.8,60.5,120.3,60.5z M120.3,55c1.5,0,2.9-0.3,4-1c1.1-0.7,2.1-1.5,2.8-2.6c0.7-1.1,1.3-2.2,1.6-3.6
		c0.3-1.3,0.5-2.7,0.5-4.1c0-1.3-0.2-2.7-0.5-4c-0.3-1.3-0.9-2.5-1.6-3.6c-0.7-1-1.7-1.9-2.8-2.5c-1.1-0.7-2.5-1-4-1
		c-1.5,0-2.9,0.3-4,1c-1.1,0.7-2.1,1.5-2.8,2.5s-1.3,2.2-1.6,3.6c-0.3,1.3-0.5,2.7-0.5,4c0,1.4,0.2,2.7,0.5,4.1
		c0.3,1.3,0.9,2.5,1.6,3.6s1.7,1.9,2.8,2.6C117.4,54.7,118.8,55,120.3,55z"/>
	<path class="st0" d="M167.8,59.7h-6.8v-4.4h-0.1c-0.9,1.6-2.1,2.9-3.8,3.8c-1.7,1-3.4,1.4-5.2,1.4c-4.1,0-7.1-1-9-3.1
		c-1.9-2.1-2.8-5.2-2.8-9.3v-20h7v19.3c0,2.8,0.5,4.7,1.6,5.9c1.1,1.1,2.5,1.7,4.5,1.7c1.5,0,2.7-0.2,3.7-0.7c1-0.4,1.8-1,2.4-1.8
		c0.6-0.8,1-1.7,1.3-2.7c0.3-1.1,0.4-2.2,0.4-3.4V28.1h7V59.7z"/>
	<path class="st0" d="M172.1,16.1h7v6.6h-7V16.1z M172.1,28.1h7v31.5h-7V28.1z"/>
	<path class="st0" d="M189.9,49.6c0.2,2,1,3.5,2.3,4.3c1.3,0.8,2.9,1.2,4.8,1.2c0.7,0,1.4,0,2.2-0.2c0.8-0.1,1.6-0.3,2.3-0.6
		c0.7-0.3,1.3-0.7,1.8-1.3c0.5-0.5,0.7-1.3,0.6-2.2c0-0.9-0.4-1.6-1-2.2c-0.6-0.6-1.4-1-2.3-1.4c-1-0.3-2-0.6-3.3-0.9
		c-1.2-0.2-2.5-0.5-3.7-0.8c-1.3-0.3-2.6-0.6-3.8-1c-1.2-0.4-2.3-1-3.2-1.6c-1-0.7-1.7-1.6-2.3-2.7c-0.6-1.1-0.9-2.4-0.9-4
		c0-1.7,0.4-3.1,1.2-4.3c0.8-1.2,1.9-2.1,3.2-2.8c1.3-0.7,2.7-1.2,4.3-1.5c1.6-0.3,3.1-0.4,4.5-0.4c1.6,0,3.2,0.2,4.7,0.5
		c1.5,0.3,2.8,0.9,4,1.7c1.2,0.8,2.2,1.8,3,3c0.8,1.2,1.3,2.7,1.5,4.5h-7.3c-0.3-1.7-1.1-2.8-2.3-3.4c-1.2-0.6-2.6-0.9-4.1-0.9
		c-0.5,0-1.1,0-1.7,0.1c-0.7,0.1-1.3,0.2-1.9,0.5c-0.6,0.2-1.1,0.5-1.5,1s-0.6,1-0.6,1.7c0,0.9,0.3,1.5,0.9,2.1
		c0.6,0.5,1.4,1,2.3,1.3c1,0.3,2,0.6,3.3,0.9s2.5,0.5,3.8,0.8c1.3,0.3,2.5,0.6,3.7,1c1.2,0.4,2.3,1,3.3,1.6c1,0.7,1.7,1.6,2.3,2.6
		c0.6,1.1,0.9,2.4,0.9,3.9c0,1.9-0.4,3.5-1.3,4.8c-0.9,1.3-2,2.4-3.3,3.2s-2.9,1.4-4.5,1.8c-1.7,0.4-3.3,0.5-4.9,0.5
		c-2,0-3.8-0.2-5.5-0.7s-3.2-1.1-4.4-2c-1.2-0.9-2.2-2.1-2.9-3.4s-1.1-3-1.1-4.8H189.9z"/>
	<path class="st0" d="M211.3,28.1h7.6l8,24.2h0.1l7.7-24.2h7.2l-11.3,31.5h-7.8L211.3,28.1z"/>
	<path class="st0" d="M244.3,16.1h7v6.6h-7V16.1z M244.3,28.1h7v31.5h-7V28.1z"/>
	<path class="st0" d="M255.8,16.1h7v43.6h-7V16.1z"/>
	<path class="st0" d="M267.3,16.1h7v43.6h-7V16.1z"/>
	<path class="st0" d="M285.3,45.7c0,1.2,0.2,2.4,0.5,3.5c0.3,1.1,0.9,2.1,1.6,3c0.7,0.9,1.6,1.5,2.6,2c1.1,0.5,2.3,0.8,3.8,0.8
		c2,0,3.7-0.4,4.9-1.3c1.2-0.9,2.2-2.2,2.8-3.9h6.6c-0.4,1.7-1,3.2-1.9,4.6c-0.9,1.3-2,2.5-3.2,3.4s-2.7,1.6-4.2,2.1
		c-1.6,0.5-3.2,0.7-4.9,0.7c-2.5,0-4.7-0.4-6.6-1.2c-1.9-0.8-3.5-2-4.8-3.4c-1.3-1.5-2.3-3.2-3-5.2c-0.7-2-1-4.3-1-6.7
		c0-2.2,0.4-4.4,1.1-6.4c0.7-2,1.7-3.8,3.1-5.3c1.3-1.5,2.9-2.7,4.8-3.6c1.9-0.9,4-1.3,6.3-1.3c2.5,0,4.7,0.5,6.7,1.6
		c2,1,3.6,2.4,4.9,4.1s2.2,3.7,2.8,5.9c0.6,2.2,0.7,4.5,0.5,6.9H285.3z M301.5,41.1c-0.1-1.1-0.3-2.2-0.7-3.2s-0.9-1.9-1.6-2.7
		c-0.7-0.8-1.5-1.4-2.4-1.8c-1-0.5-2-0.7-3.2-0.7c-1.2,0-2.3,0.2-3.3,0.6c-1,0.4-1.9,1-2.6,1.8c-0.7,0.8-1.3,1.6-1.7,2.7
		c-0.4,1-0.7,2.1-0.7,3.3H301.5z"/>
	<path class="st0" d="M307.5,16.1h35.3v6.6h-13.8v37h-7.6v-37h-13.8V16.1z"/>
	<path class="st0" d="M342.3,45.7c0,1.2,0.2,2.4,0.5,3.5c0.3,1.1,0.9,2.1,1.6,3c0.7,0.9,1.6,1.5,2.6,2c1.1,0.5,2.3,0.8,3.8,0.8
		c2,0,3.7-0.4,4.9-1.3c1.2-0.9,2.2-2.2,2.8-3.9h6.6c-0.4,1.7-1,3.2-1.9,4.6c-0.9,1.3-2,2.5-3.2,3.4s-2.7,1.6-4.2,2.1
		c-1.6,0.5-3.2,0.7-4.9,0.7c-2.5,0-4.7-0.4-6.6-1.2c-1.9-0.8-3.5-2-4.8-3.4c-1.3-1.5-2.3-3.2-3-5.2c-0.7-2-1-4.3-1-6.7
		c0-2.2,0.4-4.4,1.1-6.4c0.7-2,1.7-3.8,3.1-5.3c1.3-1.5,2.9-2.7,4.8-3.6c1.9-0.9,4-1.3,6.3-1.3c2.5,0,4.7,0.5,6.7,1.6
		c2,1,3.6,2.4,4.9,4.1s2.2,3.7,2.8,5.9c0.6,2.2,0.7,4.5,0.5,6.9H342.3z M358.5,41.1c-0.1-1.1-0.3-2.2-0.7-3.2s-0.9-1.9-1.6-2.7
		c-0.7-0.8-1.5-1.4-2.4-1.8c-1-0.5-2-0.7-3.2-0.7c-1.2,0-2.3,0.2-3.3,0.6c-1,0.4-1.9,1-2.6,1.8c-0.7,0.8-1.3,1.6-1.7,2.7
		c-0.4,1-0.7,2.1-0.7,3.3H358.5z"/>
	<path class="st0" d="M391.3,38.7c-0.3-2-1.1-3.4-2.3-4.4c-1.3-1-2.9-1.5-4.8-1.5c-0.9,0-1.9,0.2-2.9,0.5c-1,0.3-2,0.9-2.8,1.7
		c-0.9,0.8-1.6,2-2.1,3.5c-0.6,1.5-0.9,3.4-0.9,5.8c0,1.3,0.2,2.6,0.5,3.9c0.3,1.3,0.8,2.5,1.5,3.5s1.5,1.8,2.6,2.5
		c1.1,0.6,2.3,0.9,3.8,0.9c2,0,3.7-0.6,5-1.9c1.3-1.3,2.1-3,2.5-5.3h7c-0.7,4.1-2.2,7.2-4.7,9.4c-2.5,2.2-5.7,3.3-9.8,3.3
		c-2.5,0-4.7-0.4-6.6-1.2c-1.9-0.8-3.5-2-4.8-3.4s-2.3-3.2-3-5.2s-1-4.1-1-6.5c0-2.4,0.3-4.6,1-6.6c0.6-2.1,1.6-3.9,2.9-5.4
		c1.3-1.5,2.9-2.7,4.8-3.6c1.9-0.9,4.2-1.3,6.8-1.3c1.8,0,3.6,0.2,5.2,0.7c1.6,0.5,3.1,1.2,4.4,2.1c1.3,0.9,2.3,2.1,3.1,3.5
		c0.8,1.4,1.3,3.1,1.5,5.1H391.3z"/>
	<path class="st0" d="M402,16.1h7v16.2h0.1c0.9-1.4,2.1-2.6,3.8-3.6c1.7-1,3.6-1.4,5.6-1.4c3.5,0,6.2,0.9,8.2,2.7c2,1.8,3,4.5,3,8.1
		v21.7h-7V39.9c-0.1-2.5-0.6-4.3-1.6-5.4c-1-1.1-2.5-1.7-4.6-1.7c-1.2,0-2.2,0.2-3.2,0.6c-0.9,0.4-1.7,1-2.4,1.8
		c-0.7,0.8-1.2,1.6-1.5,2.7s-0.5,2.1-0.5,3.2v18.6h-7V16.1z"/>
</g>
<g>
	<path class="st2" d="M433.7,55h3.8v4.8h-3.8V55z"/>
	<path class="st2" d="M456.7,36.9c1.4,0.7,2.5,1.5,3.4,2.7c0.9,1.1,1.6,2.4,2.1,3.9c0.5,1.5,0.7,3.1,0.7,4.7s-0.2,3.3-0.7,4.7
		c-0.5,1.5-1.2,2.8-2.1,3.9c-0.9,1.1-2.1,2-3.4,2.6c-1.4,0.6-2.9,1-4.7,1c-1.8,0-3.3-0.3-4.7-1c-1.4-0.6-2.5-1.5-3.4-2.6
		c-0.9-1.1-1.6-2.4-2.1-3.9c-0.5-1.5-0.7-3.1-0.7-4.7s0.2-3.3,0.7-4.7c0.5-1.5,1.2-2.8,2.1-3.9c0.9-1.1,2.1-2,3.4-2.7
		c1.4-0.7,2.9-1,4.7-1C453.7,35.9,455.3,36.2,456.7,36.9z M448.4,39.1c-1,0.6-1.9,1.3-2.5,2.2c-0.7,0.9-1.2,2-1.5,3.2
		c-0.3,1.2-0.5,2.4-0.5,3.6s0.2,2.4,0.5,3.6c0.3,1.2,0.9,2.2,1.5,3.2c0.7,0.9,1.5,1.7,2.5,2.2c1,0.6,2.2,0.9,3.6,0.9
		c1.4,0,2.5-0.3,3.6-0.9c1-0.6,1.9-1.3,2.5-2.2s1.2-2,1.5-3.2c0.3-1.2,0.5-2.4,0.5-3.6s-0.2-2.4-0.5-3.6c-0.3-1.2-0.9-2.2-1.5-3.2
		s-1.5-1.7-2.5-2.2c-1-0.6-2.2-0.9-3.6-0.9C450.6,38.3,449.4,38.6,448.4,39.1z"/>
	<path class="st2" d="M467.3,36.6V42h0.1c0.7-1.9,1.8-3.3,3.4-4.4c1.5-1,3.3-1.5,5.4-1.4v2.8c-1.3-0.1-2.5,0.1-3.5,0.5
		c-1.1,0.4-2,1-2.7,1.7c-0.8,0.8-1.4,1.6-1.8,2.7c-0.4,1-0.6,2.2-0.6,3.4v12.4h-2.8V36.6H467.3z"/>
	<path class="st2" d="M495.5,62.5c-0.4,1.4-1,2.5-1.8,3.5c-0.8,1-1.9,1.7-3.2,2.2s-2.9,0.8-4.8,0.8c-1.2,0-2.3-0.1-3.4-0.4
		c-1.1-0.3-2.1-0.7-3-1.3c-0.9-0.6-1.6-1.3-2.2-2.2c-0.6-0.9-0.9-1.9-1-3.2h2.8c0.2,0.9,0.4,1.6,0.9,2.2c0.4,0.6,1,1.1,1.6,1.4
		c0.6,0.4,1.3,0.6,2,0.8c0.8,0.2,1.5,0.2,2.3,0.2c2.6,0,4.5-0.8,5.7-2.2c1.2-1.5,1.8-3.7,1.8-6.5v-3.2h-0.1
		c-0.7,1.4-1.6,2.6-2.9,3.5c-1.3,0.9-2.8,1.3-4.5,1.3c-1.9,0-3.5-0.3-4.8-0.9c-1.3-0.6-2.4-1.5-3.3-2.5c-0.9-1.1-1.5-2.3-1.9-3.8
		c-0.4-1.5-0.6-3-0.6-4.7c0-1.6,0.2-3.1,0.7-4.5c0.5-1.4,1.1-2.7,2-3.7c0.9-1.1,2-1.9,3.3-2.5c1.3-0.6,2.8-0.9,4.5-0.9
		c0.9,0,1.7,0.1,2.5,0.4c0.8,0.2,1.5,0.6,2.1,1c0.6,0.4,1.2,0.9,1.7,1.5c0.5,0.6,0.9,1.2,1.1,1.8h0.1v-4h2.8v21.3
		C496.1,59.6,495.9,61.2,495.5,62.5z M489,56.4c0.9-0.5,1.7-1.2,2.3-2.1c0.6-0.9,1.1-1.8,1.4-2.9c0.3-1.1,0.5-2.2,0.5-3.4
		c0-1.1-0.1-2.3-0.4-3.4c-0.3-1.1-0.7-2.2-1.3-3.1c-0.6-0.9-1.4-1.7-2.3-2.2c-0.9-0.6-2.1-0.9-3.4-0.9c-1.3,0-2.5,0.3-3.5,0.8
		c-1,0.6-1.8,1.3-2.4,2.2c-0.6,0.9-1.1,1.9-1.4,3.1c-0.3,1.2-0.4,2.3-0.4,3.5c0,1.2,0.1,2.3,0.5,3.4c0.3,1.1,0.8,2.1,1.4,2.9
		c0.6,0.9,1.4,1.5,2.4,2.1c1,0.5,2.1,0.8,3.4,0.8C487,57.1,488.1,56.9,489,56.4z"/>
</g>
</svg>
