<?xml version="1.0" encoding="utf-8"?>
<!-- Generator: Adobe Illustrator 21.1.0, SVG Export Plug-In . SVG Version: 6.00 Build 0)  -->
<svg version="1.1" id="Layer_1" xmlns="http://www.w3.org/2000/svg" xmlns:xlink="http://www.w3.org/1999/xlink" x="0px" y="0px"
	 viewBox="0 0 520.5 82" style="enable-background:new 0 0 520.5 82;" xml:space="preserve">
<style type="text/css">
	.st0{fill:#FFFFFF;}
	.st1{fill:#F75400;}
	.st2{fill:#999999;}
</style>
<rect x="19" y="15.4" class="st0" width="46" height="53.2"/>
<g id="XMLID_2_">
	<path id="XMLID_66_" class="st1" d="M32,20.6c-0.9,0-1.6,0.4-2.2,0.9c-0.6,0.6-0.9,1.3-0.9,2.2c0,0.9,0.3,1.6,0.9,2.2
		c0.6,0.6,1.3,0.9,2.2,0.9c0.9,0,1.6-0.3,2.2-0.9s0.9-1.3,0.9-2.2c0-0.9-0.3-1.6-0.9-2.2C33.6,21,32.9,20.7,32,20.6z"/>
	<path id="XMLID_70_" class="st1" d="M72.5,15.8c0-2.1-1.7-3.8-3.8-3.8H16.3c-2.1,0-3.8,1.7-3.8,3.8v52.5c0,2.1,1.7,3.8,3.8,3.8
		h52.5c2.1,0,3.8-1.7,3.8-3.8V15.8z M52.5,66.3V60c0,0,0,0-0.3,0H38.3c-2.5,0-4.3-1.1-6.2-3c-1.9-1.9-2.6-4.1-2.6-6.6V38.5
		c0-0.3,0-0.6,0-0.8c0,0,0-0.2,0-0.7c0-0.2,0-0.5,0-0.8c0-2.8,0-5.3,0-6.8c0-0.3-1.3-0.6-1.7-1c-1.2-1.2-2-2.7-2-4.5
		s0.5-3.3,1.7-4.5c1.2-1.2,2.7-1.8,4.5-1.9c1.8,0.1,3.3,0.7,4.5,1.9s1.8,2.7,1.8,4.5c0,1.8-0.9,3.3-2.1,4.5c-0.4,0.4-1.6,0.7-1.6,1
		v6.9v14.1c0,0.8,0.7,1.8,1.3,2.4c0.6,0.6,1.7,1.2,2.5,1.2h14.2v-6.9l9.6,9.6L52.5,66.3z"/>
</g>
<g>
	<g>
		<path d="M82.7,21.5h7.6v37h22.1v6.6H82.7V21.5z"/>
		<path d="M129.2,65.9c-2.5,0-4.8-0.4-6.7-1.2c-2-0.8-3.6-2-5-3.4c-1.4-1.5-2.4-3.2-3.1-5.2c-0.7-2-1.1-4.3-1.1-6.7
			c0-2.4,0.4-4.6,1.1-6.6c0.7-2,1.7-3.8,3.1-5.2c1.4-1.5,3-2.6,5-3.4c2-0.8,4.2-1.3,6.7-1.3c2.5,0,4.8,0.4,6.7,1.3
			c2,0.8,3.6,2,5,3.4c1.4,1.5,2.4,3.2,3.1,5.2c0.7,2,1.1,4.2,1.1,6.6c0,2.4-0.4,4.7-1.1,6.7c-0.7,2-1.7,3.8-3.1,5.2
			c-1.4,1.5-3,2.6-5,3.4C134,65.5,131.8,65.9,129.2,65.9z M129.2,60.4c1.5,0,2.9-0.3,4-1c1.1-0.7,2.1-1.5,2.8-2.6
			c0.7-1.1,1.3-2.2,1.6-3.6c0.3-1.3,0.5-2.7,0.5-4.1c0-1.3-0.2-2.7-0.5-4c-0.3-1.3-0.9-2.5-1.6-3.6c-0.7-1-1.7-1.9-2.8-2.5
			c-1.1-0.7-2.5-1-4-1c-1.5,0-2.9,0.3-4,1c-1.1,0.7-2.1,1.5-2.8,2.5s-1.3,2.2-1.6,3.6c-0.3,1.3-0.5,2.7-0.5,4c0,1.4,0.2,2.7,0.5,4.1
			c0.3,1.3,0.9,2.5,1.6,3.6s1.7,1.9,2.8,2.6C126.4,60.1,127.7,60.4,129.2,60.4z"/>
		<path d="M176.7,65.1h-6.8v-4.4h-0.1c-0.9,1.6-2.1,2.9-3.8,3.8c-1.7,1-3.4,1.4-5.2,1.4c-4.1,0-7.1-1-9-3.1
			c-1.9-2.1-2.8-5.2-2.8-9.3v-20h7v19.3c0,2.8,0.5,4.7,1.6,5.9c1.1,1.1,2.5,1.7,4.5,1.7c1.5,0,2.7-0.2,3.7-0.7c1-0.4,1.8-1,2.4-1.8
			c0.6-0.8,1-1.7,1.3-2.7c0.3-1.1,0.4-2.2,0.4-3.4V33.5h7V65.1z"/>
		<path d="M181,21.5h7v6.6h-7V21.5z M181,33.5h7v31.5h-7V33.5z"/>
		<path d="M198.8,54.9c0.2,2,1,3.5,2.3,4.3c1.3,0.8,2.9,1.2,4.8,1.2c0.7,0,1.4,0,2.2-0.2c0.8-0.1,1.6-0.3,2.3-0.6
			c0.7-0.3,1.3-0.7,1.8-1.3c0.5-0.5,0.7-1.3,0.6-2.2c0-0.9-0.4-1.6-1-2.2c-0.6-0.6-1.4-1-2.3-1.4c-1-0.3-2-0.6-3.3-0.9
			c-1.2-0.2-2.5-0.5-3.7-0.8c-1.3-0.3-2.6-0.6-3.8-1c-1.2-0.4-2.3-1-3.2-1.6c-1-0.7-1.7-1.6-2.3-2.7c-0.6-1.1-0.9-2.4-0.9-4
			c0-1.7,0.4-3.1,1.2-4.3c0.8-1.2,1.9-2.1,3.2-2.8c1.3-0.7,2.7-1.2,4.3-1.5c1.6-0.3,3.1-0.4,4.5-0.4c1.6,0,3.2,0.2,4.7,0.5
			c1.5,0.3,2.8,0.9,4,1.7c1.2,0.8,2.2,1.8,3,3c0.8,1.2,1.3,2.7,1.5,4.5h-7.3c-0.3-1.7-1.1-2.8-2.3-3.4c-1.2-0.6-2.6-0.9-4.1-0.9
			c-0.5,0-1.1,0-1.7,0.1c-0.7,0.1-1.3,0.2-1.9,0.5c-0.6,0.2-1.1,0.5-1.5,1c-0.4,0.4-0.6,1-0.6,1.7c0,0.9,0.3,1.5,0.9,2.1
			c0.6,0.5,1.4,1,2.3,1.3c1,0.3,2,0.6,3.3,0.9s2.5,0.5,3.8,0.8c1.3,0.3,2.5,0.6,3.7,1c1.2,0.4,2.3,1,3.3,1.6c1,0.7,1.7,1.6,2.3,2.6
			c0.6,1.1,0.9,2.4,0.9,3.9c0,1.9-0.4,3.5-1.3,4.8c-0.9,1.3-2,2.4-3.3,3.2s-2.9,1.4-4.5,1.8c-1.7,0.4-3.3,0.5-4.9,0.5
			c-2,0-3.8-0.2-5.5-0.7s-3.2-1.1-4.4-2c-1.2-0.9-2.2-2.1-2.9-3.4s-1.1-3-1.1-4.8H198.8z"/>
		<path d="M220.2,33.5h7.6l8,24.2h0.1l7.7-24.2h7.2l-11.3,31.5h-7.8L220.2,33.5z"/>
		<path d="M253.2,21.5h7v6.6h-7V21.5z M253.2,33.5h7v31.5h-7V33.5z"/>
		<path d="M264.7,21.5h7v43.6h-7V21.5z"/>
		<path d="M276.2,21.5h7v43.6h-7V21.5z"/>
		<path d="M294.2,51.1c0,1.2,0.2,2.4,0.5,3.5c0.3,1.1,0.9,2.1,1.6,3c0.7,0.9,1.6,1.5,2.6,2c1.1,0.5,2.3,0.8,3.8,0.8
			c2,0,3.7-0.4,4.9-1.3c1.2-0.9,2.2-2.2,2.8-3.9h6.6c-0.4,1.7-1,3.2-1.9,4.6c-0.9,1.3-2,2.5-3.2,3.4s-2.7,1.6-4.2,2.1
			c-1.6,0.5-3.2,0.7-4.9,0.7c-2.5,0-4.7-0.4-6.6-1.2c-1.9-0.8-3.5-2-4.8-3.4c-1.3-1.5-2.3-3.2-3-5.2c-0.7-2-1-4.3-1-6.7
			c0-2.2,0.4-4.4,1.1-6.4c0.7-2,1.7-3.8,3.1-5.3c1.3-1.5,2.9-2.7,4.8-3.6c1.9-0.9,4-1.3,6.3-1.3c2.5,0,4.7,0.5,6.7,1.6
			c2,1,3.6,2.4,4.9,4.1s2.2,3.7,2.8,5.9c0.6,2.2,0.7,4.5,0.5,6.9H294.2z M310.5,46.5c-0.1-1.1-0.3-2.2-0.7-3.2
			c-0.4-1-0.9-1.9-1.6-2.7c-0.7-0.8-1.5-1.4-2.4-1.8c-1-0.5-2-0.7-3.2-0.7c-1.2,0-2.3,0.2-3.3,0.6c-1,0.4-1.9,1-2.6,1.8
			c-0.7,0.8-1.3,1.6-1.7,2.7c-0.4,1-0.7,2.1-0.7,3.3H310.5z"/>
		<path d="M316.4,21.5h35.3v6.6h-13.8v37h-7.6v-37h-13.8V21.5z"/>
		<path d="M351.2,51.1c0,1.2,0.2,2.4,0.5,3.5c0.3,1.1,0.9,2.1,1.6,3c0.7,0.9,1.6,1.5,2.6,2c1.1,0.5,2.3,0.8,3.8,0.8
			c2,0,3.7-0.4,4.9-1.3c1.2-0.9,2.2-2.2,2.8-3.9h6.6c-0.4,1.7-1,3.2-1.9,4.6c-0.9,1.3-2,2.5-3.2,3.4s-2.7,1.6-4.2,2.1
			c-1.6,0.5-3.2,0.7-4.9,0.7c-2.5,0-4.7-0.4-6.6-1.2c-1.9-0.8-3.5-2-4.8-3.4c-1.3-1.5-2.3-3.2-3-5.2c-0.7-2-1-4.3-1-6.7
			c0-2.2,0.4-4.4,1.1-6.4c0.7-2,1.7-3.8,3.1-5.3c1.3-1.5,2.9-2.7,4.8-3.6c1.9-0.9,4-1.3,6.3-1.3c2.5,0,4.7,0.5,6.7,1.6
			c2,1,3.6,2.4,4.9,4.1s2.2,3.7,2.8,5.9c0.6,2.2,0.7,4.5,0.5,6.9H351.2z M367.4,46.5c-0.1-1.1-0.3-2.2-0.7-3.2
			c-0.4-1-0.9-1.9-1.6-2.7c-0.7-0.8-1.5-1.4-2.4-1.8c-1-0.5-2-0.7-3.2-0.7c-1.2,0-2.3,0.2-3.3,0.6c-1,0.4-1.9,1-2.6,1.8
			c-0.7,0.8-1.3,1.6-1.7,2.7c-0.4,1-0.7,2.1-0.7,3.3H367.4z"/>
		<path d="M400.3,44.1c-0.3-2-1.1-3.4-2.3-4.4c-1.3-1-2.9-1.5-4.8-1.5c-0.9,0-1.9,0.2-2.9,0.5c-1,0.3-2,0.9-2.8,1.7
			c-0.9,0.8-1.6,2-2.1,3.5c-0.6,1.5-0.9,3.4-0.9,5.8c0,1.3,0.2,2.6,0.5,3.9c0.3,1.3,0.8,2.5,1.5,3.5s1.5,1.8,2.6,2.5
			c1.1,0.6,2.3,0.9,3.8,0.9c2,0,3.7-0.6,5-1.9c1.3-1.3,2.1-3,2.5-5.3h7c-0.7,4.1-2.2,7.2-4.7,9.4c-2.5,2.2-5.7,3.3-9.8,3.3
			c-2.5,0-4.7-0.4-6.6-1.2c-1.9-0.8-3.5-2-4.8-3.4s-2.3-3.2-3-5.2s-1-4.1-1-6.5c0-2.4,0.3-4.6,1-6.6c0.6-2.1,1.6-3.9,2.9-5.4
			c1.3-1.5,2.9-2.7,4.8-3.6c1.9-0.9,4.2-1.3,6.8-1.3c1.8,0,3.6,0.2,5.2,0.7c1.6,0.5,3.1,1.2,4.4,2.1c1.3,0.9,2.3,2.1,3.1,3.5
			c0.8,1.4,1.3,3.1,1.5,5.1H400.3z"/>
		<path d="M410.9,21.5h7v16.2h0.1c0.9-1.4,2.1-2.6,3.8-3.6c1.7-1,3.6-1.4,5.6-1.4c3.5,0,6.2,0.9,8.2,2.7c2,1.8,3,4.5,3,8.1v21.7h-7
			V45.2c-0.1-2.5-0.6-4.3-1.6-5.4c-1-1.1-2.5-1.7-4.6-1.7c-1.2,0-2.2,0.2-3.2,0.6c-0.9,0.4-1.7,1-2.4,1.8c-0.7,0.8-1.2,1.6-1.5,2.7
			c-0.4,1-0.5,2.1-0.5,3.2v18.6h-7V21.5z"/>
	</g>
	<g>
		<path class="st2" d="M442.7,60.4h3.8v4.8h-3.8V60.4z"/>
		<path class="st2" d="M465.6,42.3c1.4,0.7,2.5,1.5,3.4,2.7c0.9,1.1,1.6,2.4,2.1,3.9c0.5,1.5,0.7,3.1,0.7,4.7s-0.2,3.3-0.7,4.7
			c-0.5,1.5-1.2,2.8-2.1,3.9c-0.9,1.1-2.1,2-3.4,2.6c-1.4,0.6-2.9,1-4.7,1c-1.8,0-3.3-0.3-4.7-1c-1.4-0.6-2.5-1.5-3.4-2.6
			c-0.9-1.1-1.6-2.4-2.1-3.9c-0.5-1.5-0.7-3.1-0.7-4.7s0.2-3.3,0.7-4.7c0.5-1.5,1.2-2.8,2.1-3.9c0.9-1.1,2.1-2,3.4-2.7
			c1.4-0.7,2.9-1,4.7-1C462.7,41.3,464.2,41.6,465.6,42.3z M457.3,44.5c-1,0.6-1.9,1.3-2.5,2.2c-0.7,0.9-1.2,2-1.5,3.2
			c-0.3,1.2-0.5,2.4-0.5,3.6s0.2,2.4,0.5,3.6c0.3,1.2,0.9,2.2,1.5,3.2c0.7,0.9,1.5,1.7,2.5,2.2c1,0.6,2.2,0.9,3.6,0.9
			c1.4,0,2.5-0.3,3.6-0.9c1-0.6,1.9-1.3,2.5-2.2s1.2-2,1.5-3.2c0.3-1.2,0.5-2.4,0.5-3.6s-0.2-2.4-0.5-3.6c-0.3-1.2-0.9-2.2-1.5-3.2
			s-1.5-1.7-2.5-2.2c-1-0.6-2.2-0.9-3.6-0.9C459.5,43.7,458.3,43.9,457.3,44.5z"/>
		<path class="st2" d="M476.3,42v5.4h0.1c0.7-1.9,1.8-3.3,3.4-4.4c1.5-1,3.3-1.5,5.4-1.4v2.8c-1.3-0.1-2.5,0.1-3.5,0.5
			c-1.1,0.4-2,1-2.7,1.7c-0.8,0.8-1.4,1.6-1.8,2.7c-0.4,1-0.6,2.2-0.6,3.4v12.4h-2.8V42H476.3z"/>
		<path class="st2" d="M504.5,67.9c-0.4,1.4-1,2.5-1.8,3.5c-0.8,1-1.9,1.7-3.2,2.2s-2.9,0.8-4.8,0.8c-1.2,0-2.3-0.1-3.4-0.4
			c-1.1-0.3-2.1-0.7-3-1.3c-0.9-0.6-1.6-1.3-2.2-2.2c-0.6-0.9-0.9-1.9-1-3.2h2.8c0.2,0.9,0.4,1.6,0.9,2.2c0.4,0.6,1,1.1,1.6,1.4
			c0.6,0.4,1.3,0.6,2,0.8c0.8,0.2,1.5,0.2,2.3,0.2c2.6,0,4.5-0.8,5.7-2.2c1.2-1.5,1.8-3.7,1.8-6.5v-3.2h-0.1
			c-0.7,1.4-1.6,2.6-2.9,3.5c-1.3,0.9-2.8,1.3-4.5,1.3c-1.9,0-3.5-0.3-4.8-0.9c-1.3-0.6-2.4-1.5-3.3-2.5c-0.9-1.1-1.5-2.3-1.9-3.8
			c-0.4-1.5-0.6-3-0.6-4.7c0-1.6,0.2-3.1,0.7-4.5c0.5-1.4,1.1-2.7,2-3.7c0.9-1.1,2-1.9,3.3-2.5c1.3-0.6,2.8-0.9,4.5-0.9
			c0.9,0,1.7,0.1,2.5,0.4c0.8,0.2,1.5,0.6,2.1,1c0.6,0.4,1.2,0.9,1.7,1.5c0.5,0.6,0.9,1.2,1.1,1.8h0.1v-4h2.8v21.3
			C505,65,504.8,66.5,504.5,67.9z M498,61.7c0.9-0.5,1.7-1.2,2.3-2.1c0.6-0.9,1.1-1.8,1.4-2.9c0.3-1.1,0.5-2.2,0.5-3.4
			c0-1.1-0.1-2.3-0.4-3.4c-0.3-1.1-0.7-2.2-1.3-3.1c-0.6-0.9-1.4-1.7-2.3-2.2c-0.9-0.6-2.1-0.9-3.4-0.9c-1.3,0-2.5,0.3-3.5,0.8
			c-1,0.6-1.8,1.3-2.4,2.2c-0.6,0.9-1.1,1.9-1.4,3.1c-0.3,1.2-0.4,2.3-0.4,3.5c0,1.2,0.1,2.3,0.5,3.4c0.3,1.1,0.8,2.1,1.4,2.9
			c0.6,0.9,1.4,1.5,2.4,2.1c1,0.5,2.1,0.8,3.4,0.8C496,62.5,497,62.3,498,61.7z"/>
	</g>
</g>
</svg>
