<?xml version="1.0" encoding="utf-8"?>
<!-- Generator: Adobe Illustrator 16.0.0, SVG Export Plug-In . SVG Version: 6.00 Build 0)  -->
<!DOCTYPE svg PUBLIC "-//W3C//DTD SVG 1.1//EN" "http://www.w3.org/Graphics/SVG/1.1/DTD/svg11.dtd">
<svg version="1.1" id="Layer_1" xmlns="http://www.w3.org/2000/svg" xmlns:xlink="http://www.w3.org/1999/xlink" x="0px" y="0px"
	 width="100px" height="100px" viewBox="0 0 100 100" enable-background="new 0 0 100 100" xml:space="preserve">
<g id="XMLID_2_">
	<path id="XMLID_66_" fill="#F75400" d="M33.374,16.318c-1.416,0.053-2.596,0.552-3.541,1.496c-0.944,0.945-1.417,2.125-1.417,3.542
		c0,1.417,0.472,2.596,1.417,3.54c0.944,0.945,2.125,1.416,3.541,1.416c1.417,0,2.596-0.471,3.541-1.416
		c0.945-0.944,1.417-2.124,1.417-3.54c0-1.417-0.472-2.597-1.417-3.542C35.97,16.87,34.791,16.371,33.374,16.318z"/>
	<path id="XMLID_70_" fill="#F75400" d="M97,8.617C97,5.333,94.667,3,91.385,3H8.616C5.333,3,3,5.333,3,8.617v82.765
		C3,94.667,5.333,97,8.616,97h82.769C94.667,97,97,94.667,97,91.382V8.617z M66,88.316V78c0,0-0.295,0-0.646,0H43.447
		c-3.935,0-7.067-1.609-10.057-4.6S29,67.067,29,63.133V44.484c0-0.494,0-0.89,0-1.204c0,0.007,0-0.257,0-1.07
		c0-0.331,0-0.755,0-1.287c0-4.396,0-8.385,0-10.771c0-0.431-1.79-0.98-2.455-1.646c-1.896-1.897-2.985-4.266-2.985-7.11
		c0-2.845,0.879-5.213,2.775-7.109c1.896-1.896,4.23-2.896,7.075-3.003c2.844,0.106,5.197,1.106,7.092,3.003
		c1.896,1.896,2.834,4.265,2.834,7.109c0,2.844-1.679,5.213-3.575,7.11C39.136,29.129,37,29.651,37,30.07v10.853v22.21
		c0,1.312,1.283,2.881,2.28,3.876C40.275,68.008,42.136,69,43.447,69H66V58.098l15.107,15.107L66,88.316z"/>
</g>
</svg>
